# xmcd
# 
# Track frame offsets:
#     150
#     20045
#     43265
#     61407
#     78267
#     87350
#     103282
#     139250
#     162230
#     180485
# 
# Disc length: 2734
# 
# Revision: 0
# Processed by: cddbd v1.5.2PL0 Copyright (c) Steve Scherf et al.
# Submitted via: BonkEnc v1.0.6
# 
DISCID=860aac0a
DTITLE=Bud Powell - The Scene Changes
DYEAR=1958
DGENRE=Jazz
TTITLE0=Cleopatra's Dream
TTITLE1=Duid Deed
TTITLE2=Down With It
TTITLE3=Danceland
TTITLE4=Borderick
TTITLE5=Crossin' The Channel
TTITLE6=Comin' Up
TTITLE7=Gettin' There
TTITLE8=The Scene Changes
TTITLE9=Comin' Up (Alternate Take)
EXTD=DNOTES YEAR: 1958
EXTT0=
EXTT1=
EXTT2=
EXTT3=
EXTT4=
EXTT5=
EXTT6=
EXTT7=
EXTT8=
EXTT9=
PLAYORDER=
